<svg width="1600" height="562" viewBox="0 0 1600 562" fill="none" xmlns="http://www.w3.org/2000/svg">
<path d="M0 261.562C0 138.261 0 76.6099 38.3049 38.3049C76.6099 0 138.261 0 261.562 0H300.22C423.522 0 485.172 0 523.477 38.3049C561.782 76.6099 561.782 138.261 561.782 261.562V300.22C561.782 423.522 561.782 485.172 523.477 523.477C485.172 561.782 423.522 561.782 300.22 561.782H261.562C138.261 561.782 76.6099 561.782 38.3049 523.477C0 485.172 0 423.522 0 300.22V261.562Z" fill="#0E0E0E"/>
<path d="M291.663 211.873V297.338L432.098 249.688C445.892 245.008 455.053 232.927 455.053 219.417V164.199C455.053 160.389 451.309 157.706 447.701 158.93L291.663 211.873Z" fill="white"/>
<path d="M288.642 125.719C290.448 126.331 291.663 128.027 291.663 129.934V234.692C291.663 221.182 282.503 209.101 268.709 204.421L151.228 164.559C137.434 159.879 128.274 147.798 128.274 134.288V77.5172C128.274 74.469 131.268 72.3227 134.155 73.3021L288.642 125.719Z" fill="white"/>
<path d="M291.663 297.338L291.664 382.802L151.228 335.153C137.434 330.473 128.274 318.392 128.274 304.882V248.111C128.274 245.063 131.269 242.917 134.155 243.896L291.663 297.338Z" fill="white"/>
<path fill-rule="evenodd" clip-rule="evenodd" d="M224.406 310.574V484.021C224.406 486.479 226.399 488.472 228.857 488.472H287.268C289.728 488.472 291.722 486.475 291.719 484.015L291.491 310.574H224.406Z" fill="white"/>
<path d="M882.731 141.2V211.801H817.457V380.351C817.457 407.7 830.896 414.697 850.094 415.333C859.693 415.333 876.331 414.697 887.85 413.425V487.841C877.611 489.749 860.973 491.021 837.295 491.021C768.821 491.021 722.106 460.491 722.746 393.707V211.801H674.75V141.2H722.746V58.5155H817.457V141.2H882.731Z" fill="#0E0E0E"/>
<path d="M922.586 486.569V141.2H1014.1V200.988H1017.94C1030.74 158.373 1062.73 136.112 1101.77 136.112C1111.37 136.112 1123.53 137.384 1131.85 139.292V223.249C1122.89 220.705 1104.97 218.161 1091.53 218.161C1048.65 218.161 1017.3 248.055 1017.3 290.033V486.569H922.586Z" fill="#0E0E0E"/>
<path d="M1158.26 486.569V141.2H1252.98V486.569H1158.26ZM1205.62 96.0417C1176.82 96.0417 1153.78 74.4164 1153.78 48.3389C1153.78 21.6253 1176.82 0 1205.62 0C1233.78 0 1256.81 21.6253 1256.81 48.3389C1256.81 74.4164 1233.78 96.0417 1205.62 96.0417Z" fill="#0E0E0E"/>
<path d="M1290.27 389.891C1290.27 312.931 1352.99 287.489 1419.54 283.673C1444.5 282.083 1491.21 279.857 1505.93 279.221V251.235C1505.29 222.613 1485.45 205.44 1450.26 205.44C1418.26 205.44 1397.78 220.069 1392.66 243.602H1302.43C1308.19 183.815 1360.66 136.748 1452.82 136.748C1528.33 136.748 1600 170.458 1600 253.779V486.569H1510.41V438.866H1507.85C1490.57 470.668 1457.94 492.929 1406.1 492.929C1339.55 492.929 1290.27 458.583 1290.27 389.891ZM1381.14 387.347C1381.14 414.061 1402.9 428.053 1432.98 428.053C1475.85 428.053 1506.57 399.432 1505.93 363.178V337.736C1491.53 338.372 1451.22 340.598 1434.9 342.188C1402.26 345.368 1381.14 360.633 1381.14 387.347Z" fill="#0E0E0E"/>
</svg>
